HIERARCHY
ROOT hip
{
  OFFSET 0 0 0
  CHANNELS 6 Xposition Yposition Zposition Zrotation Yrotation Xrotation
  JOINT abdomen
  {
    OFFSET 0 20.6881 -0.73152
    CHANNELS 3 Zrotation Xrotation Yrotation
    JOINT chest
    {
      OFFSET 0 11.7043 -0.48768
      CHANNELS 3 Zrotation Xrotation Yrotation
      JOINT neck
      {
        OFFSET 0 22.1894 -2.19456
        CHANNELS 3 Zrotation Xrotation Yrotation
        JOINT head
        {
          OFFSET -0.24384 7.07133 1.2192
          CHANNELS 3 Zrotation Xrotation Yrotation
          JOINT leftEye
          {
            OFFSET 4.14528 8.04674 8.04672
            CHANNELS 3 Zrotation Xrotation Yrotation
            End Site
            {
              OFFSET 1 0 0
            }
          }
          JOINT rightEye
          {
            OFFSET -3.6576 8.04674 8.04672
            CHANNELS 3 Zrotation Xrotation Yrotation
            End Site
            {
              OFFSET 1 0 0
            }
          }
        }
      }
      JOINT rCollar
      {
        OFFSET -2.68224 19.2634 -4.8768
        CHANNELS 3 Zrotation Xrotation Yrotation
        JOINT rShldr
        {
          OFFSET -8.77824 -1.95073 1.46304
          CHANNELS 3 Zrotation Xrotation Yrotation
          JOINT rForeArm
          {
            OFFSET -28.1742 -1.7115 0.48768
            CHANNELS 3 Zrotation Xrotation Yrotation
            JOINT rHand
            {
              OFFSET -22.5879 0.773209 7.07136
              CHANNELS 3 Zrotation Xrotation Yrotation
              JOINT rThumb1
              {
                OFFSET -1.2192 -0.487915 3.41376
                CHANNELS 3 Zrotation Xrotation Yrotation
                JOINT rThumb2
                {
                  OFFSET -3.37035 -0.52449 3.41376
                  CHANNELS 3 Zrotation Xrotation Yrotation
                  End Site
                  {
                    OFFSET -1.78271 -1.18214 1.43049
                  }
                }
              }
              JOINT rIndex1
              {
                OFFSET -7.75947 0.938293 5.60832
                CHANNELS 3 Zrotation Xrotation Yrotation
                JOINT rIndex2
                {
                  OFFSET -2.54057 -0.884171 1.56538
                  CHANNELS 3 Zrotation Xrotation Yrotation
                  End Site
                  {
                    OFFSET -1.62519 -0.234802 1.16502
                  }
                }
              }
              JOINT rMid1
              {
                OFFSET -8.24714 1.18213 3.41376
                CHANNELS 3 Zrotation Xrotation Yrotation
                JOINT rMid2
                {
                  OFFSET -3.10165 -0.590103 1.0647
                  CHANNELS 3 Zrotation Xrotation Yrotation
                  End Site
                  {
                    OFFSET -2.48547 -0.328903 0.83742
                  }
                }
              }
              JOINT rRing1
              {
                OFFSET -8.82822 0.546677 1.51678
                CHANNELS 3 Zrotation Xrotation Yrotation
                JOINT rRing2
                {
                  OFFSET -2.60934 -0.819778 -0.0198488
                  CHANNELS 3 Zrotation Xrotation Yrotation
                  End Site
                  {
                    OFFSET -2.33842 -0.294052 0.168128
                  }
                }
              }
              JOINT rPinky1
              {
                OFFSET -8.27202 -0.0477905 -0.4584
                CHANNELS 3 Zrotation Xrotation Yrotation
                JOINT rPinky2
                {
                  OFFSET -1.82734 -0.647385 -0.700984
                  CHANNELS 3 Zrotation Xrotation Yrotation
                  End Site
                  {
                    OFFSET -1.69225 -0.51767 -0.607171
                  }
                }
              }
            }
          }
        }
      }
      JOINT lCollar
      {
        OFFSET 2.68224 19.2634 -4.8768
        CHANNELS 3 Zrotation Xrotation Yrotation
        JOINT lShldr
        {
          OFFSET 8.77824 -1.95073 1.46304
          CHANNELS 3 Zrotation Xrotation Yrotation
          JOINT lForeArm
          {
            OFFSET 28.1742 -1.7115 0.48768
            CHANNELS 3 Zrotation Xrotation Yrotation
            JOINT lHand
            {
              OFFSET 22.5879 0.773209 7.07136
              CHANNELS 3 Zrotation Xrotation Yrotation
              JOINT lThumb1
              {
                OFFSET 1.2192 -0.487915 3.41376
                CHANNELS 3 Zrotation Xrotation Yrotation
                JOINT lThumb2
                {
                  OFFSET 3.37035 -0.52449 3.41376
                  CHANNELS 3 Zrotation Xrotation Yrotation
                  End Site
                  {
                    OFFSET 1.78271 -1.18214 1.43049
                  }
                }
              }
              JOINT lIndex1
              {
                OFFSET 7.75947 0.938293 5.60832
                CHANNELS 3 Zrotation Xrotation Yrotation
                JOINT lIndex2
                {
                  OFFSET 2.54057 -0.884171 1.56538
                  CHANNELS 3 Zrotation Xrotation Yrotation
                  End Site
                  {
                    OFFSET 1.62519 -0.234802 1.16502
                  }
                }
              }
              JOINT lMid1
              {
                OFFSET 8.24714 1.18213 3.41376
                CHANNELS 3 Zrotation Xrotation Yrotation
                JOINT lMid2
                {
                  OFFSET 3.10165 -0.590103 1.0647
                  CHANNELS 3 Zrotation Xrotation Yrotation
                  End Site
                  {
                    OFFSET 2.48547 -0.328903 0.83742
                  }
                }
              }
              JOINT lRing1
              {
                OFFSET 8.82822 0.546677 1.51678
                CHANNELS 3 Zrotation Xrotation Yrotation
                JOINT lRing2
                {
                  OFFSET 2.60934 -0.819778 -0.0198488
                  CHANNELS 3 Zrotation Xrotation Yrotation
                  End Site
                  {
                    OFFSET 2.33842 -0.294052 0.168128
                  }
                }
              }
              JOINT lPinky1
              {
                OFFSET 8.27202 -0.0477905 -0.4584
                CHANNELS 3 Zrotation Xrotation Yrotation
                JOINT lPinky2
                {
                  OFFSET 1.82734 -0.647385 -0.700984
                  CHANNELS 3 Zrotation Xrotation Yrotation
                  End Site
                  {
                    OFFSET 1.69225 -0.51767 -0.607171
                  }
                }
              }
            }
          }
        }
      }
    }
  }
  JOINT rButtock
  {
    OFFSET -8.77824 4.35084 1.2192
    CHANNELS 3 Zrotation Xrotation Yrotation
    JOINT rThigh
    {
      OFFSET 0 -1.70687 -2.19456
      CHANNELS 3 Zrotation Xrotation Yrotation
      JOINT rShin
      {
        OFFSET 0 -36.8199 0.73152
        CHANNELS 3 Zrotation Xrotation Yrotation
        JOINT rFoot
        {
          OFFSET 0.73152 -45.1104 -5.12064
          CHANNELS 3 Zrotation Xrotation Yrotation
          End Site
          {
            OFFSET -1.1221 -3.69964 12.103
          }
        }
      }
    }
  }
  JOINT lButtock
  {
    OFFSET 8.77824 4.35084 1.2192
    CHANNELS 3 Zrotation Xrotation Yrotation
    JOINT lThigh
    {
      OFFSET 0 -1.70687 -2.19456
      CHANNELS 3 Zrotation Xrotation Yrotation
      JOINT lShin
      {
        OFFSET 0 -36.8199 0.73152
        CHANNELS 3 Zrotation Xrotation Yrotation
        JOINT lFoot
        {
          OFFSET -0.73152 -45.1104 -5.12064
          CHANNELS 3 Zrotation Xrotation Yrotation
          End Site
          {
            OFFSET 1.1221 -3.69964 12.103
          }
        }
      }
    }
  }
}
MOTION
Frames:	7
Frame Time:	0.00833333
-0.00038200524 0.66139996 0.00080997124 -375.55096 -15.3157 -354.97696 13.937899 3.5489597 8.675619 0.5792319 -6.3874397 2.4706998 -2.5791 10.4971 -0.53525794 5.3063297 -15.018499 -0.120727986 -0.0 0.0 0.0 -0.0 0.0 0.0 2.6391798e-13 1.9316998e-13 1.8667698e-13 42.180096 49.990597 46.323498 -18.796799 -11.569799 35.833298 -5.2448497 52.595097 10.590399 4.5240298e-10 4.31001e-09 -1.18728e-09 7.299639e-10 7.304859e-09 -2.06192e-09 4.52408e-10 4.30998e-09 -1.1872899e-09 7.73091 5.47488 0.41731396 4.52398e-10 4.31001e-09 -1.18728e-09 2.90554 0.96518296 0.102901995 4.52408e-10 4.31001e-09 -1.18728e-09 10.278599 0.7318009 0.0259123 4.5239398e-10 4.31001e-09 -1.18728e-09 2.22167 -0.733487 -0.20891999 2.6381997e-13 1.9316799e-13 1.86485e-13 -80.79389 22.558397 -62.266598 25.444698 -22.0852 -54.573498 6.5051794 -56.244297 12.139299 -5.8132493e-10 1.7617199e-09 1.16338994e-10 -1.00484e-09 2.9757699e-09 1.7385898e-10 -5.81323e-10 1.7617298e-09 1.1634299e-10 -7.73091 5.47488 -0.41731396 -5.8131994e-10 1.76174e-09 1.16336996e-10 -2.90554 0.96518296 -0.102901995 -5.81332e-10 1.7617298e-09 1.16338994e-10 -10.278599 0.7318009 -0.0259123 -5.8132593e-10 1.7617199e-09 1.16333984e-10 -2.22167 -0.733487 0.20891999 -2.0321698e-16 0.0 -3.8825097e-19 5.4208694 0.7601659 -18.761799 -0.35257396 50.169895 2.2200398 -18.761799 -17.198298 -38.2848 2.0321698e-16 0.0 3.8825097e-19 62.583195 -59.1655 55.588497 2.5305097 72.370895 -2.7702498 -0.49980396 -1.44984 -4.2740793
-0.0007549883 0.66064495 0.0015819911 -375.57098 -15.260199 -354.975 13.930399 3.5327098 8.65535 0.5617259 -6.4147496 2.4622 -2.59083 10.458399 -0.529802 5.3582597 -14.929599 -0.108669996 -0.0 0.0 0.0 -0.0 0.0 0.0 -4.3305596e-13 -6.7189194e-14 3.81716e-13 42.3713 49.979496 46.236298 -18.770699 -11.5399 35.7729 -5.2272596 52.537895 10.5683 1.2522798e-10 -7.8925195e-09 3.39982e-09 3.6268497e-10 -1.3086799e-08 5.8485394e-09 1.2523299e-10 -7.8925195e-09 3.3998095e-09 7.73091 5.47488 0.41731396 1.2521599e-10 -7.8925195e-09 3.3998095e-09 2.90554 0.96518296 0.102901995 1.2523499e-10 -7.8925195e-09 3.3998095e-09 10.278599 0.7318009 0.0259123 1.2521899e-10 -7.8925195e-09 3.3998095e-09 2.22167 -0.733487 -0.20891999 -4.33177e-13 -6.7189594e-14 3.8151698e-13 -80.764 22.597097 -62.247 25.456598 -22.1126 -54.618298 6.49503 -56.217995 12.127099 1.23048e-09 5.9005694e-09 2.7006197e-09 1.99721e-09 1.05643e-08 4.6990998e-09 1.23048e-09 5.9005694e-09 2.7006297e-09 -7.73091 5.47488 -0.41731396 1.2304899e-09 5.90055e-09 2.7006097e-09 -2.90554 0.96518296 -0.102901995 1.23048e-09 5.9005596e-09 2.7006197e-09 -10.278599 0.7318009 -0.0259123 1.23048e-09 5.9005596e-09 2.7006097e-09 -2.22167 -0.733487 0.20891999 -2.0321698e-16 0.0 -3.8825097e-19 5.4590497 0.80962294 -18.7706 -0.35351697 50.240894 2.2282398 -18.8306 -17.283598 -38.3056 2.0321698e-16 0.0 3.8825097e-19 62.844593 -59.1732 55.834396 2.5709398 72.575294 -2.8119798 -0.52141696 -1.5634199 -4.33373
-0.0010240008 0.659889 0.0022179913 -375.60196 -15.226198 -354.97397 13.945599 3.5092196 8.6218 0.54417 -6.4056396 2.4504797 -2.5845797 10.465299 -0.52853596 5.3449097 -15.011998 -0.10063899 -0.0 0.0 0.0 -0.0 0.0 0.0 -2.63222e-13 -6.105219e-14 2.2385297e-13 42.318897 50.024998 46.332695 -18.7571 -11.524499 35.7418 -5.1962 52.436398 10.529099 3.2111996e-10 -1.1250599e-09 8.79806e-10 5.90649e-10 -1.7688099e-09 1.4997898e-09 3.2112296e-10 -1.1250699e-09 8.79804e-10 7.73091 5.47488 0.41731396 3.21107e-10 -1.1250699e-09 8.7980795e-10 2.90554 0.96518296 0.102901995 3.21126e-10 -1.1250599e-09 8.79803e-10 10.278599 0.7318009 0.0259123 3.2111397e-10 -1.1250599e-09 8.79806e-10 2.22167 -0.733487 -0.20891999 -2.63345e-13 -6.10519e-14 2.2363297e-13 -80.7839 22.598 -62.251995 25.463099 -22.1275 -54.642696 6.5037894 -56.240597 12.137599 2.8252897e-10 3.68096e-09 1.32388e-09 4.2673698e-10 6.5008594e-09 2.28869e-09 2.8252498e-10 3.6809698e-09 1.3238899e-09 -7.73091 5.47488 -0.41731396 2.82532e-10 3.68095e-09 1.3238699e-09 -2.90554 0.96518296 -0.102901995 2.8252398e-10 3.68096e-09 1.32388e-09 -10.278599 0.7318009 -0.0259123 2.82531e-10 3.68096e-09 1.3238599e-09 -2.22167 -0.733487 0.20891999 -2.0321698e-16 0.0 -3.8825097e-19 5.47497 0.86380094 -18.809298 -0.35413396 50.314495 2.2377799 -18.911798 -17.441498 -38.2697 2.0321698e-16 0.0 3.8825097e-19 63.11489 -59.1878 56.102695 2.61166 72.776794 -2.85414 -0.53552 -1.6282098 -4.3755
-0.0014079968 0.65920997 0.0026680063 -375.57996 -15.186098 -354.96997 13.949999 3.4847698 8.58378 0.52682996 -6.3834896 2.4375298 -2.5672097 10.483599 -0.52038693 5.3042693 -15.148899 -0.08052939 -0.0 0.0 0.0 -0.0 0.0 0.0 -1.8525898e-14 -1.5108398e-14 4.3036897e-14 42.1768 50.0888 46.497498 -18.7534 -11.520399 35.733295 -5.1667 52.339294 10.4918995 4.6257698e-10 6.1630394e-09 -1.9203297e-09 7.1277995e-10 1.03966995e-08 -3.3285599e-09 4.6257698e-10 6.1630194e-09 -1.9203399e-09 7.73091 5.47488 0.41731396 4.6256393e-10 6.1630194e-09 -1.9203297e-09 2.90554 0.96518296 0.102901995 4.6258e-10 6.1630394e-09 -1.9203297e-09 10.278599 0.7318009 0.0259123 4.6257398e-10 6.1630394e-09 -1.9203297e-09 2.22167 -0.733487 -0.20891999 -1.86481e-14 -1.5107598e-14 4.2788398e-14 -80.8217 22.562597 -62.271194 25.464098 -22.129898 -54.646496 6.4992194 -56.228897 12.132099 -7.6977397e-10 7.5055795e-10 -3.4041797e-10 -1.3101699e-09 1.1727399e-09 -6.209199e-10 -7.6978396e-10 7.5056794e-10 -3.4039896e-10 -7.73091 5.47488 -0.41731396 -7.6977297e-10 7.5055595e-10 -3.4041497e-10 -2.90554 0.96518296 -0.102901995 -7.6978396e-10 7.5056594e-10 -3.4041298e-10 -10.278599 0.7318009 -0.0259123 -7.6977097e-10 7.5055795e-10 -3.4042696e-10 -2.22167 -0.733487 0.20891999 -2.0321698e-16 0.0 -3.8825097e-19 5.47252 0.903824 -18.849 -0.35489798 50.3887 2.2467198 -18.986599 -17.585697 -38.2373 2.0321698e-16 0.0 3.8825097e-19 63.360798 -59.204998 56.362396 2.6493397 72.958496 -2.8928099 -0.547562 -1.6809698 -4.4109097
-0.0015319907 0.658544 0.0030939933 -375.57996 -15.2088 -354.951 13.919899 3.4579997 8.54963 0.51154894 -6.3552094 2.4251997 -2.5327597 10.483799 -0.48941997 5.2409 -15.2619 -0.025577297 -0.0 0.0 0.0 -0.0 0.0 0.0 -3.4631496e-13 -8.45834e-14 1.5038098e-13 41.984196 50.156197 46.707695 -18.7586 -11.526199 35.745197 -5.1560993 52.304195 10.4785 -8.91295e-11 -3.33556e-09 1.2822399e-09 -1.00633994e-10 -5.5750697e-09 2.20971e-09 -8.912649e-11 -3.3355898e-09 1.2822299e-09 7.73091 5.47488 0.41731396 -8.9141895e-11 -3.3355898e-09 1.2822399e-09 2.90554 0.96518296 0.102901995 -8.91295e-11 -3.33556e-09 1.2822399e-09 10.278599 0.7318009 0.0259123 -8.913179e-11 -3.33556e-09 1.2822399e-09 2.22167 -0.733487 -0.20891999 -3.4643797e-13 -8.4582894e-14 1.5010398e-13 -80.86939 22.467499 -62.304695 25.455898 -22.110899 -54.615498 6.4269996 -56.041195 12.045199 5.1052196e-10 1.6367199e-09 8.955509e-10 8.3909696e-10 2.9634197e-09 1.5615998e-09 5.10512e-10 1.6367099e-09 8.9556296e-10 -7.73091 5.47488 -0.41731396 5.1052296e-10 1.6367099e-09 8.9555696e-10 -2.90554 0.96518296 -0.102901995 5.1051297e-10 1.6367199e-09 8.95553e-10 -10.278599 0.7318009 -0.0259123 5.1052396e-10 1.6367199e-09 8.9554086e-10 -2.22167 -0.733487 0.20891999 -2.0321698e-16 0.0 -3.8825097e-19 5.4600196 0.90959996 -18.860098 -0.35588798 50.451897 2.25325 -19.045 -17.629997 -38.281998 2.0321698e-16 0.0 3.8825097e-19 63.563095 -59.224293 56.592697 2.6805997 73.105 -2.9242697 -0.562015 -1.7586899 -4.4447
-0.0017259852 0.657994 0.0034209806 -375.51596 -15.163499 -354.938 13.873799 3.4351597 8.52808 0.49827498 -6.3369794 2.41711 -2.5092397 10.504299 -0.45889097 5.1897798 -15.3707 0.0289012 -0.0 0.0 0.0 -0.0 0.0 0.0 -6.6811796e-13 -1.61016e-13 2.1240099e-13 41.842094 50.208694 46.862495 -18.767199 -11.535999 35.764797 -5.1494393 52.282196 10.470099 -7.3756096e-10 -1.3461799e-08 4.60608e-09 -1.0750899e-09 -2.2621398e-08 7.96102e-09 -7.3755596e-10 -1.3461899e-08 4.6060595e-09 7.73091 5.47488 0.41731396 -7.37572e-10 -1.3461899e-08 4.60608e-09 2.90554 0.96518296 0.102901995 -7.37563e-10 -1.3461799e-08 4.6060697e-09 10.278599 0.7318009 0.0259123 -7.3756395e-10 -1.3461799e-08 4.60608e-09 2.22167 -0.733487 -0.20891999 -6.682559e-13 -1.61016e-13 2.1210299e-13 -80.89099 22.377197 -62.33739 25.4459 -22.087997 -54.578094 6.3597693 -55.863995 11.963999 1.8194499e-09 1.8620699e-09 1.9456599e-09 3.0459397e-09 3.59853e-09 3.4257999e-09 1.8194399e-09 1.86204e-09 1.94567e-09 -7.73091 5.47488 -0.41731396 1.8194499e-09 1.8620598e-09 1.94567e-09 -2.90554 0.96518296 -0.102901995 1.8194399e-09 1.8620598e-09 1.9456599e-09 -10.278599 0.7318009 -0.0259123 1.8194499e-09 1.8620598e-09 1.9456499e-09 -2.22167 -0.733487 0.20891999 -2.0321698e-16 0.0 -3.8825097e-19 5.42469 0.897358 -18.862299 -0.35733297 50.525 2.2593699 -19.097298 -17.663298 -38.3261 2.0321698e-16 0.0 3.8825097e-19 63.7197 -59.246395 56.786495 2.7083297 73.23139 -2.9513497 -0.573862 -1.8333 -4.4643197
-0.0018580002 0.657433 0.0038189813 -375.47195 -15.175298 -354.91196 13.821599 3.4084299 8.53028 0.490494 -6.3433094 2.4178898 -2.5488198 10.629299 -0.45114794 5.2166095 -15.514898 0.052791495 -0.0 0.0 0.0 -0.0 0.0 0.0 -4.5195797e-13 -1.6282998e-13 -1.3574199e-13 41.9083 50.224895 46.811398 -18.775997 -11.545999 35.7852 -5.1322093 52.225098 10.448299 -9.96825e-10 -9.622419e-09 2.6564897e-09 -1.6051499e-09 -1.6317399e-08 4.6145994e-09 -9.968218e-10 -9.6224495e-09 2.6564697e-09 7.73091 5.47488 0.41731396 -9.968348e-10 -9.6224495e-09 2.6564897e-09 2.90554 0.96518296 0.102901995 -9.968208e-10 -9.622419e-09 2.65648e-09 10.278599 0.7318009 0.0259123 -9.9683e-10 -9.622419e-09 2.6564897e-09 2.22167 -0.733487 -0.20891999 -4.5215996e-13 -1.6282899e-13 -1.3604898e-13 -80.8249 22.3538 -62.348995 25.441998 -22.078897 -54.563297 6.3766894 -55.908695 11.984399 1.02119e-09 -3.2853298e-09 -2.31311e-10 1.7690699e-09 -5.5791696e-09 -3.5398098e-10 1.0211799e-09 -3.2853598e-09 -2.3130799e-10 -7.73091 5.47488 -0.41731396 1.02119e-09 -3.2853398e-09 -2.3130597e-10 -2.90554 0.96518296 -0.102901995 1.02119e-09 -3.2853398e-09 -2.3131398e-10 -10.278599 0.7318009 -0.0259123 1.02119e-09 -3.2853398e-09 -2.3132499e-10 -2.22167 -0.733487 0.20891999 -2.0321698e-16 0.0 -3.8825097e-19 5.3439097 0.86840594 -18.8581 -0.35981897 50.641098 2.26714 -19.150297 -17.768297 -38.292595 2.0321698e-16 0.0 3.8825097e-19 63.825798 -59.266697 56.938297 2.7352397 73.3504 -2.9761698 -0.578414 -1.88406 -4.4557
